<?xml version="1.0" encoding="UTF-8"?><svg id="Layer_2" xmlns="http://www.w3.org/2000/svg" viewBox="0 0 334.28 200.61"><defs><style>.cls-1{fill:none;stroke:#000;stroke-linecap:round;stroke-linejoin:round;stroke-width:15px;}</style></defs><g id="Layer_2-2"><line class="cls-1" x1="166.88" y1="68.01" x2="199.15" y2="68.01"/><line class="cls-1" x1="199.15" y1="68.03" x2="220.95" y2="44.37"/><line class="cls-1" x1="167.78" y1="101.26" x2="264.37" y2="101.3"/><line class="cls-1" x1="231.08" y1="99.92" x2="257.78" y2="68.02"/><line class="cls-1" x1="257.78" y1="68.02" x2="291.41" y2="68.03"/><line class="cls-1" x1="166.88" y1="131.33" x2="211.68" y2="131.35"/><line class="cls-1" x1="212.56" y1="132.78" x2="223.85" y2="152.34"/><line class="cls-1" x1="225.16" y1="154" x2="267.22" y2="154.02"/><circle class="cls-1" cx="309.47" cy="68.02" r="17.3"/><circle class="cls-1" cx="287.89" cy="154.01" r="17.3"/><circle class="cls-1" cx="233.38" cy="24.8" r="17.3"/><circle class="cls-1" cx="269.83" cy="101.31" r="5.46"/><line class="cls-1" x1="124.9" y1="148.78" x2="147.69" y2="155.31"/><line class="cls-1" x1="144.22" y1="181.97" x2="148.24" y2="156.16"/><line class="cls-1" x1="35.99" y1="131.43" x2="36" y2="72.21"/><polyline class="cls-1" points="87.45 193.11 8.1 147.98 7.5 56.69 86.26 10.53 165.62 55.66 166.21 146.95"/><line class="cls-1" x1="145.99" y1="158.72" x2="88.52" y2="192.67"/></g></svg>